<svg xmlns="http://www.w3.org/2000/svg" viewBox="0 0 1200 650" role="img" aria-label="Dadvan placeholder image">
  <defs>
    <linearGradient id="bg" x1="0" y1="0" x2="1" y2="1">
      <stop offset="0" stop-color="#101827"/>
      <stop offset="1" stop-color="#263449"/>
    </linearGradient>
    <linearGradient id="van" x1="0" y1="0" x2="1" y2="1">
      <stop offset="0" stop-color="#f7f7f3"/>
      <stop offset="0.55" stop-color="#d7dde5"/>
      <stop offset="1" stop-color="#aeb8c4"/>
    </linearGradient>
    <linearGradient id="glass" x1="0" y1="0" x2="1" y2="1">
      <stop offset="0" stop-color="#7dd3fc" stop-opacity="0.95"/>
      <stop offset="1" stop-color="#1e3a8a" stop-opacity="0.9"/>
    </linearGradient>
    <filter id="shadow" x="-20%" y="-20%" width="140%" height="140%">
      <feDropShadow dx="0" dy="22" stdDeviation="20" flood-color="#000" flood-opacity="0.35"/>
    </filter>
  </defs>

  <rect width="1200" height="650" fill="url(#bg)"/>
  <circle cx="1000" cy="100" r="180" fill="#60a5fa" opacity="0.08"/>
  <circle cx="170" cy="555" r="260" fill="#22c55e" opacity="0.06"/>

  <text x="70" y="100" fill="#e5e7eb" font-family="Segoe UI, Arial, sans-serif" font-size="54" font-weight="700">Dadvan</text>
  <text x="72" y="145" fill="#9ca3af" font-family="Segoe UI, Arial, sans-serif" font-size="25">2017 Chrysler Pacifica • BATCAVE Vehicle Dashboard</text>

  <g filter="url(#shadow)" transform="translate(70 120)">
    <path d="M130 292 C150 215, 220 160, 330 150 L690 150 C790 150, 880 200, 938 292 L1010 312 C1050 323, 1076 360, 1070 402 L1060 462 L95 462 L82 405 C72 358, 91 315, 130 292 Z" fill="url(#van)"/>
    <path d="M260 178 L655 178 C735 178, 800 213, 848 284 L216 284 C226 235, 240 205, 260 178 Z" fill="url(#glass)"/>
    <path d="M500 178 L512 284" stroke="#dbeafe" stroke-width="8" opacity="0.75"/>
    <path d="M690 184 C745 197, 792 231, 826 284" stroke="#dbeafe" stroke-width="8" opacity="0.75" fill="none"/>
    <rect x="250" y="315" width="190" height="92" rx="18" fill="#cbd5e1" opacity="0.55"/>
    <rect x="470" y="315" width="190" height="92" rx="18" fill="#cbd5e1" opacity="0.55"/>
    <rect x="690" y="315" width="120" height="92" rx="18" fill="#cbd5e1" opacity="0.55"/>
    <rect x="832" y="330" width="88" height="25" rx="12" fill="#fbbf24" opacity="0.9"/>
    <rect x="112" y="334" width="70" height="24" rx="12" fill="#f87171" opacity="0.95"/>
    <path d="M115 462 L1065 462" stroke="#64748b" stroke-width="10" stroke-linecap="round"/>
    <circle cx="275" cy="462" r="76" fill="#0f172a"/>
    <circle cx="275" cy="462" r="42" fill="#94a3b8"/>
    <circle cx="275" cy="462" r="17" fill="#e5e7eb"/>
    <circle cx="845" cy="462" r="76" fill="#0f172a"/>
    <circle cx="845" cy="462" r="42" fill="#94a3b8"/>
    <circle cx="845" cy="462" r="17" fill="#e5e7eb"/>
  </g>

  <g transform="translate(72 558)">
    <rect width="330" height="50" rx="25" fill="#111827" opacity="0.75"/>
    <circle cx="33" cy="25" r="10" fill="#22c55e"/>
    <text x="55" y="33" fill="#d1d5db" font-family="Segoe UI, Arial, sans-serif" font-size="22">Status-first vehicle monitoring</text>
  </g>
</svg>
